<?xml version="1.0" encoding="UTF-8"?>
<svg width="64" height="64" viewBox="0 0 64 64" fill="none" xmlns="http://www.w3.org/2000/svg">
  <defs>
    <linearGradient id="fi-bg" x1="32" y1="4" x2="32" y2="60" gradientUnits="userSpaceOnUse">
      <stop offset="0%" stop-color="#EBEBEB"/>
      <stop offset="55%" stop-color="#CCCCCC"/>
      <stop offset="100%" stop-color="#AAAAAA"/>
    </linearGradient>
    <linearGradient id="fi-sh" x1="32" y1="4" x2="32" y2="34" gradientUnits="userSpaceOnUse">
      <stop offset="0%" stop-color="white" stop-opacity="0.55"/>
      <stop offset="100%" stop-color="white" stop-opacity="0"/>
    </linearGradient>
    <filter id="fi-sd" x="-20%" y="-20%" width="140%" height="140%">
      <feDropShadow dx="0" dy="2" stdDeviation="3" flood-color="#000" flood-opacity="0.28"/>
    </filter>
  </defs>
  <rect x="6" y="6" width="52" height="52" rx="12" fill="url(#fi-bg)" filter="url(#fi-sd)"/>
  <path d="M6 18 Q6 6 18 6 L32 6 L32 58 L18 58 Q6 58 6 46 Z" fill="#999" opacity="0.22"/>
  <rect x="6" y="6" width="52" height="26" rx="12" fill="url(#fi-sh)"/>
  <ellipse cx="23" cy="26" rx="4" ry="5" fill="#3A3A3A"/>
  <ellipse cx="41" cy="26" rx="4" ry="5" fill="#3A3A3A"/>
  <ellipse cx="24" cy="25" rx="1.5" ry="2" fill="white" opacity="0.55"/>
  <ellipse cx="42" cy="25" rx="1.5" ry="2" fill="white" opacity="0.55"/>
  <path d="M19 40 Q32 52 45 40" stroke="#3A3A3A" stroke-width="3.5" stroke-linecap="round" fill="none"/>
  <rect x="6" y="6" width="52" height="52" rx="12" stroke="white" stroke-width="1.2" stroke-opacity="0.35" fill="none"/>
</svg>