<?xml version="1.0" encoding="UTF-8"?>
<svg width="64" height="64" viewBox="0 0 64 64" fill="none" xmlns="http://www.w3.org/2000/svg">
  <defs>
    <linearGradient id="fo-bg" x1="32" y1="14" x2="32" y2="56" gradientUnits="userSpaceOnUse">
      <stop offset="0%" stop-color="#E8E8E8"/>
      <stop offset="100%" stop-color="#BBBBBB"/>
    </linearGradient>
    <linearGradient id="fo-tab" x1="16" y1="10" x2="16" y2="20" gradientUnits="userSpaceOnUse">
      <stop offset="0%" stop-color="#D8D8D8"/>
      <stop offset="100%" stop-color="#BBBBBB"/>
    </linearGradient>
    <filter id="fo-sd" x="-10%" y="-10%" width="120%" height="130%">
      <feDropShadow dx="0" dy="3" stdDeviation="3" flood-color="#000" flood-opacity="0.25"/>
    </filter>
  </defs>
  <path d="M4 20 Q4 14 10 14 L26 14 L30 10 L54 10 Q60 10 60 16 L60 50 Q60 56 54 56 L10 56 Q4 56 4 50 Z" fill="url(#fo-bg)" filter="url(#fo-sd)"/>
  <path d="M4 20 L60 20 L60 16 Q60 10 54 10 L30 10 L26 14 L10 14 Q4 14 4 20 Z" fill="url(#fo-tab)"/>
  <rect x="4" y="20" width="56" height="2" fill="white" opacity="0.4"/>
</svg>