<?xml version="1.0" encoding="UTF-8"?>
<svg width="64" height="64" viewBox="0 0 64 64" fill="none" xmlns="http://www.w3.org/2000/svg">
  <defs>
    <linearGradient id="st-body" x1="32" y1="4" x2="32" y2="60" gradientUnits="userSpaceOnUse">
      <stop offset="0%" stop-color="#E8E8E8"/>
      <stop offset="100%" stop-color="#BBBBBB"/>
    </linearGradient>
    <filter id="st-sd" x="-20%" y="-20%" width="140%" height="140%">
      <feDropShadow dx="0" dy="2" stdDeviation="3" flood-color="#000" flood-opacity="0.25"/>
    </filter>
  </defs>
  <path d="M32 4 L36 14 L46 10 L48 20 L58 22 L54 32 L60 40 L52 46 L54 56 L44 56 L40 60 L32 56 L24 60 L20 56 L10 56 L12 46 L4 40 L10 32 L6 22 L16 20 L18 10 L28 14 Z" fill="url(#st-body)" filter="url(#st-sd)"/>
  <circle cx="32" cy="32" r="10" fill="#CCCCCC" stroke="#AAAAAA" stroke-width="1.5"/>
  <circle cx="32" cy="32" r="5" fill="#E8E8E8"/>
  <path d="M32 4 L36 14 L46 10 L48 20 L58 22 L54 32 L60 40 L52 46 L54 56 L44 56 L40 60 L32 56 L24 60 L20 56 L10 56 L12 46 L4 40 L10 32 L6 22 L16 20 L18 10 L28 14 Z" stroke="white" stroke-width="0.8" stroke-opacity="0.35" fill="none"/>
</svg>