<?xml version="1.0" encoding="UTF-8"?>
<svg width="64" height="64" viewBox="0 0 64 64" fill="none" xmlns="http://www.w3.org/2000/svg">
  <defs>
    <linearGradient id="cp-body" x1="32" y1="14" x2="32" y2="50" gradientUnits="userSpaceOnUse">
      <stop offset="0%" stop-color="#DEDEDE"/>
      <stop offset="100%" stop-color="#AAAAAA"/>
    </linearGradient>
    <filter id="cp-sd" x="-10%" y="-10%" width="120%" height="120%">
      <feDropShadow dx="0" dy="2" stdDeviation="3" flood-color="#000" flood-opacity="0.25"/>
    </filter>
  </defs>
  <rect x="14" y="14" width="36" height="36" rx="4" fill="url(#cp-body)" filter="url(#cp-sd)"/>
  <rect x="20" y="20" width="24" height="24" rx="2" fill="#BBBBBB" stroke="#999" stroke-width="0.5"/>
  <line x1="20" y1="8" x2="20" y2="14" stroke="#AAAAAA" stroke-width="2.5" stroke-linecap="round"/>
  <line x1="28" y1="8" x2="28" y2="14" stroke="#AAAAAA" stroke-width="2.5" stroke-linecap="round"/>
  <line x1="36" y1="8" x2="36" y2="14" stroke="#AAAAAA" stroke-width="2.5" stroke-linecap="round"/>
  <line x1="44" y1="8" x2="44" y2="14" stroke="#AAAAAA" stroke-width="2.5" stroke-linecap="round"/>
  <line x1="20" y1="50" x2="20" y2="56" stroke="#AAAAAA" stroke-width="2.5" stroke-linecap="round"/>
  <line x1="28" y1="50" x2="28" y2="56" stroke="#AAAAAA" stroke-width="2.5" stroke-linecap="round"/>
  <line x1="36" y1="50" x2="36" y2="56" stroke="#AAAAAA" stroke-width="2.5" stroke-linecap="round"/>
  <line x1="44" y1="50" x2="44" y2="56" stroke="#AAAAAA" stroke-width="2.5" stroke-linecap="round"/>
  <line x1="8" y1="20" x2="14" y2="20" stroke="#AAAAAA" stroke-width="2.5" stroke-linecap="round"/>
  <line x1="8" y1="28" x2="14" y2="28" stroke="#AAAAAA" stroke-width="2.5" stroke-linecap="round"/>
  <line x1="8" y1="36" x2="14" y2="36" stroke="#AAAAAA" stroke-width="2.5" stroke-linecap="round"/>
  <line x1="8" y1="44" x2="14" y2="44" stroke="#AAAAAA" stroke-width="2.5" stroke-linecap="round"/>
  <line x1="50" y1="20" x2="56" y2="20" stroke="#AAAAAA" stroke-width="2.5" stroke-linecap="round"/>
  <line x1="50" y1="28" x2="56" y2="28" stroke="#AAAAAA" stroke-width="2.5" stroke-linecap="round"/>
  <line x1="50" y1="36" x2="56" y2="36" stroke="#AAAAAA" stroke-width="2.5" stroke-linecap="round"/>
  <line x1="50" y1="44" x2="56" y2="44" stroke="#AAAAAA" stroke-width="2.5" stroke-linecap="round"/>
  <rect x="14" y="14" width="36" height="36" rx="4" stroke="white" stroke-width="0.8" stroke-opacity="0.3" fill="none"/>
</svg>